<svg width="64" height="64" viewBox="0 0 64 64" fill="none" xmlns="http://www.w3.org/2000/svg">
<rect width="64" height="64" rx="8" fill="#FFF59D"/>
<rect x="1" y="1" width="62" height="62" rx="7" stroke="black" stroke-opacity="0.87" stroke-width="2"/>
<path d="M9.89142 32H7.12154L15.1329 10.1818H17.8602L25.8715 32H23.1017L16.5818 13.6335H16.4113L9.89142 32ZM10.9142 23.4773H22.0789V25.821H10.9142V23.4773ZM31.4433 10.1818V32H28.9291V10.1818H31.4433ZM43.1647 15.6364V17.767H34.6846V15.6364H43.1647ZM37.1562 11.7159H39.6704V27.3125C39.6704 28.0227 39.7733 28.5554 39.9793 28.9105C40.1924 29.2585 40.4623 29.4929 40.789 29.6136C41.1228 29.7273 41.4743 29.7841 41.8437 29.7841C42.1207 29.7841 42.3479 29.7699 42.5255 29.7415C42.703 29.706 42.8451 29.6776 42.9516 29.6562L43.463 31.9148C43.2925 31.9787 43.0546 32.0426 42.7492 32.1065C42.4438 32.1776 42.0567 32.2131 41.588 32.2131C40.8778 32.2131 40.1817 32.0604 39.4999 31.755C38.8252 31.4496 38.2641 30.9844 37.8167 30.3594C37.3763 29.7344 37.1562 28.946 37.1562 27.9943V11.7159Z" fill="black" fill-opacity="0.87"/>
</svg>
