<svg width="16" height="16" viewBox="0 0 16 16" fill="none" xmlns="http://www.w3.org/2000/svg">
<rect width="16" height="16" fill="#7E57C2"/>
<path d="M9.79688 10.3887C9.83789 10.1198 9.81283 9.89421 9.72168 9.71191C9.63053 9.52507 9.49837 9.37012 9.3252 9.24707C9.15658 9.11947 8.96517 9.01237 8.75098 8.92578C8.53678 8.83919 8.32487 8.75716 8.11523 8.67969C7.76888 8.55664 7.42708 8.41081 7.08984 8.24219C6.7526 8.07357 6.44727 7.87305 6.17383 7.64062C5.90495 7.4082 5.69531 7.13477 5.54492 6.82031C5.39453 6.5013 5.33301 6.12988 5.36035 5.70605C5.39681 5.22754 5.53125 4.81283 5.76367 4.46191C6.00065 4.10645 6.30143 3.8125 6.66602 3.58008C7.0306 3.34766 7.42936 3.17676 7.8623 3.06738C8.29525 2.95345 8.72591 2.90104 9.1543 2.91016C9.76042 2.92383 10.3005 3.05371 10.7744 3.2998C11.2484 3.5459 11.6198 3.89453 11.8887 4.3457C12.1576 4.79688 12.2806 5.33236 12.2578 5.95215H10.5898C10.6172 5.60579 10.5739 5.30957 10.46 5.06348C10.3506 4.81283 10.1774 4.61914 9.94043 4.48242C9.70345 4.34115 9.40951 4.26823 9.05859 4.26367C8.74414 4.25456 8.44108 4.30241 8.14941 4.40723C7.85775 4.50749 7.60938 4.66471 7.4043 4.87891C7.20378 5.0931 7.07845 5.36882 7.02832 5.70605C6.99186 5.94303 7.02376 6.14811 7.12402 6.32129C7.22884 6.49447 7.3724 6.6403 7.55469 6.75879C7.73698 6.87728 7.93294 6.97754 8.14258 7.05957C8.35221 7.1416 8.54818 7.21452 8.73047 7.27832C9.09961 7.40592 9.4528 7.55859 9.79004 7.73633C10.1318 7.90951 10.4349 8.11686 10.6992 8.3584C10.9635 8.59993 11.1663 8.88704 11.3076 9.21973C11.4489 9.54785 11.5036 9.93294 11.4717 10.375C11.4307 10.8626 11.2939 11.2842 11.0615 11.6396C10.8291 11.9906 10.5329 12.2777 10.1729 12.501C9.81283 12.7243 9.41634 12.8883 8.9834 12.9932C8.55046 13.098 8.11296 13.1458 7.6709 13.1367C7.2015 13.1322 6.75716 13.0592 6.33789 12.918C5.92318 12.7767 5.55859 12.5716 5.24414 12.3027C4.92969 12.0293 4.68587 11.6989 4.5127 11.3115C4.34408 10.9242 4.26888 10.4821 4.28711 9.98535L5.95508 9.99219C5.93685 10.2839 5.96419 10.5436 6.03711 10.7715C6.11458 10.9948 6.23307 11.1816 6.39258 11.332C6.55208 11.4824 6.74577 11.5964 6.97363 11.6738C7.20605 11.7513 7.46582 11.79 7.75293 11.79C8.06283 11.7992 8.36361 11.7559 8.65527 11.6602C8.9515 11.5645 9.20215 11.4141 9.40723 11.209C9.61686 10.9993 9.74674 10.7259 9.79688 10.3887Z" fill="white"/>
</svg>
